<svg version="1" xmlns="http://www.w3.org/2000/svg" width="1333.333" height="1333.333" viewBox="0 0 1000.000000 1000.000000"><path d="M779 181.5V208h-48v41h48v55h45v-55h47.9l-.2-20.3-.2-20.2-23.7-.3-23.8-.2v-53h-45v26.5zM486 293.4C448.7 313.2 132.5 485 131 486.3c-2.5 2.1-2.6 5.2-.1 7.4 1.1.9 31.4 17.6 67.3 37 35.9 19.5 68.7 37.3 72.8 39.7 4.1 2.4 10.2 5.7 13.4 7.5l5.9 3.1 9.6-5.2c5.3-2.8 11.2-6 13.1-7.1 1.9-1.1 31-16.9 64.5-35.3 33.6-18.3 67.5-36.8 75.5-41.2l14.5-8 .5-4.8c1.5-12.7 11.2-21.4 24-21.4 13.8 0 24 10.2 24 24s-10.2 24-24 24c-4.2 0-7.4-.6-10.2-2.1-3-1.5-4.6-1.9-5.7-1.2-.9.6-5.6 3.2-10.6 5.8-4.9 2.7-13 7.1-18 9.8-4.9 2.8-11.2 6.2-14 7.7-4.3 2.3-62 34-74 40.5-2.2 1.2-11.9 6.5-21.5 11.8-9.6 5.2-19.4 10.6-21.7 11.9l-4.3 2.5 90.3 48.4c49.6 26.6 91.9 49.3 94.1 50.3 3.4 1.7 4.3 1.8 7.5.6 2-.7 54.9-29.2 117.6-63.3 62.7-34.1 143.6-78.1 179.8-97.7 36.2-19.6 66.7-36.4 67.8-37.3 2.4-2.1 2.4-5.3 0-7.4-1.1-.9-82.9-45.5-181.8-99.1C508.1 290 507.5 289.6 501 289.3c-6.1-.4-7-.2-15 4.1z"/><path d="M617.5 654.1C554.3 688.7 502 716.9 501.3 717c-.7 0-42.5-22.1-92.9-49.1-50.5-27-92.3-49.3-93.1-49.6-1.1-.4-1.3 11.9-1.3 72.1V763H722.7l3.3-2.3c1.9-1.2 4.2-3.6 5.2-5.3 1.7-2.9 1.8-7.5 1.6-83.6l-.3-80.4-115 62.7zM267 672.4c0 78.2.1 80.2 2 83.4 3.1 5 7.5 7.2 14.8 7.2h6.2V604.5l-11.5-6.1-11.5-6.2v80.2z"/></svg>