<svg width="66.563" height="79.531" xmlns="http://www.w3.org/2000/svg"><path d="M43.281 16.797v-3.438H40v3.438zm-16.718 0v-3.438H23.28v3.438zM45 7.266c5.52 3.958 8.281 9.323 8.281 16.093h-40c0-6.875 2.709-12.24 8.125-16.093L17.031 2.89c-.833-.834-.833-1.615 0-2.344.834-.73 1.615-.73 2.344 0l5 5c2.708-1.458 5.677-2.188 8.906-2.188 3.125 0 6.042.73 8.75 2.188l5-5c.834-.73 1.615-.73 2.344 0 .73.729.73 1.51 0 2.344zm16.563 19.53c1.354 0 2.526.496 3.515 1.485.99.99 1.484 2.162 1.484 3.516v23.281c0 1.458-.494 2.656-1.484 3.594-.99.937-2.161 1.406-3.516 1.406-1.354 0-2.526-.469-3.515-1.406-.99-.938-1.484-2.136-1.484-3.594V31.797c0-1.354.494-2.526 1.484-3.516.99-.99 2.161-1.484 3.516-1.484zM5 26.797c1.354 0 2.526.496 3.516 1.485.99.99 1.484 2.162 1.484 3.516v23.281c0 1.458-.495 2.656-1.484 3.594-.99.937-2.162 1.406-3.516 1.406s-2.526-.469-3.516-1.406C.494 57.734 0 56.536 0 55.078V31.797c0-1.354.495-2.526 1.484-3.516.99-.99 2.162-1.484 3.516-1.484zm8.281 33.282V26.797h40v33.281c0 .938-.312 1.719-.937 2.344-.625.625-1.406.937-2.344.937h-3.438v11.72c0 1.457-.494 2.655-1.484 3.593-.99.937-2.161 1.406-3.516 1.406-1.354 0-2.526-.469-3.515-1.406-.99-.938-1.484-2.136-1.484-3.594V63.36H30v11.72c0 1.457-.495 2.655-1.484 3.593-.99.937-2.162 1.406-3.516 1.406s-2.526-.469-3.516-1.406c-.99-.938-1.484-2.136-1.484-3.594V63.36h-3.438c-.937 0-1.718-.312-2.343-.937s-.938-1.406-.938-2.344zm60 13.36"/></svg>