<svg xmlns="http://www.w3.org/2000/svg" viewBox="0 0 221.5 197.06"><defs><style>.cls-3{fill:#fff}.cls-4{fill:#33a4dd}</style><linearGradient id="linear-gradient" x1="110.75" y1="197.06" x2="110.75" gradientUnits="userSpaceOnUse"><stop offset="0" stop-color="#33a2db"/><stop offset=".09" stop-color="#38a4dc" stop-opacity=".97"/><stop offset=".22" stop-color="#47abdd" stop-opacity=".9"/><stop offset=".36" stop-color="#61b8e3" stop-opacity=".77"/><stop offset=".51" stop-color="#84c7e8" stop-opacity=".6"/><stop offset=".67" stop-color="#b2dcf0" stop-opacity=".38"/><stop offset=".83" stop-color="#e8f5fd" stop-opacity=".11"/><stop offset=".9" stop-color="#fff" stop-opacity="0"/></linearGradient><linearGradient id="linear-gradient-2" x1="110.75" y1="184.01" x2="110.75" y2="1.12" gradientUnits="userSpaceOnUse"><stop offset="0" stop-color="#31a2db"/><stop offset=".1" stop-color="#33a4dd" stop-opacity=".97"/><stop offset=".23" stop-color="#40abdf" stop-opacity=".9"/><stop offset=".38" stop-color="#5db8e4" stop-opacity=".78"/><stop offset=".53" stop-color="#81c7e9" stop-opacity=".6"/><stop offset=".68" stop-color="#b0dbf2" stop-opacity=".38"/><stop offset=".83" stop-color="#e7f6fc" stop-opacity=".12"/><stop offset=".95" stop-color="#fff" stop-opacity="0"/></linearGradient></defs><g id="Layer_2" data-name="Layer 2"><g id="iOS_Safari" data-name="iOS Safari"><path d="M187 195.94H34.47a33.35 33.35 0 0 1-33.35-33.35V1.12h219.25v161.47A33.34 33.34 0 0 1 187 195.94z" fill="none" stroke-linecap="round" stroke-miterlimit="10" stroke-width="2.25" stroke="url(#linear-gradient)"/><path d="M13.63 1.12v162.93a20 20 0 0 0 20 20h154.28a20 20 0 0 0 20-20V1.12zm39.69 96.35h-3.66v-8.76h-.17l-2.65 1.81v-3.13l2.82-1.91h3.66zm62.13 0h-9.22v-2.25l4.15-4c1-.92 1.29-1.44 1.29-2a1.06 1.06 0 0 0-1.13-1.07 1.12 1.12 0 0 0-1.14 1.13v.26H106v-.22c0-2.3 2-4 4.76-4s4.53 1.4 4.53 3.48c0 1.31-.51 2.2-2.21 3.86l-1.89 1.87v.14h4.29zm55.57.21c-3.36 0-4.88-1.87-4.88-3.91h3.35c0 .72.77 1.19 1.62 1.19a1.27 1.27 0 0 0 1.41-1.17c0-.6-.48-1.18-1.46-1.18h-1.39V90H171c.82 0 1.3-.44 1.3-1.07s-.56-1-1.31-1a1.3 1.3 0 0 0-1.35 1.23h-3.4c.1-2.46 1.92-3.88 4.94-3.88 2.59 0 4.68 1.26 4.68 3.21a2.42 2.42 0 0 1-2.15 2.51v.19a2.63 2.63 0 0 1 2.46 2.86c0 2.36-2.52 3.63-5.17 3.63z" fill="url(#linear-gradient-2)"/><rect class="cls-3" x="92.74" y="111.35" width="35.9" height="35.9" rx="9.58"/><path class="cls-4" d="M115.82 120.83h-9.71a3.62 3.62 0 0 0-3.62 3.61v9.71a3.62 3.62 0 0 0 3.62 3.62h9.71a3.62 3.62 0 0 0 3.62-3.62v-9.71a3.62 3.62 0 0 0-3.62-3.61zm-1.71 9.25h-2.74v2.74a.59.59 0 1 1-1.17 0v-2.74h-2.74a.59.59 0 1 1 0-1.17h2.74v-2.74a.59.59 0 0 1 1.17 0v2.74h2.74a.59.59 0 0 1 0 1.17z"/><path class="cls-3" d="M99.24 159.22l1.83-5.33h1l1.83 5.33h-.9l-.47-1.48h-1.87l-.48 1.48zm2.3-4.41l-.72 2.25h1.47l-.72-2.25zM107.15 155.68v-2.07h.87v5.61h-.84v-.63a1.3 1.3 0 0 1-1.2.68c-1 0-1.62-.76-1.62-1.94V157c0-1.15.6-1.94 1.62-1.94a1.27 1.27 0 0 1 1.17.62zm-1.9 1.32v.31c0 .84.4 1.25 1 1.25s1-.44 1-1.25V157c0-.77-.38-1.25-1-1.25s-1 .41-1 1.25zM111.79 155.68v-2.07h.87v5.61h-.84v-.63a1.3 1.3 0 0 1-1.2.68c-1 0-1.62-.76-1.62-1.94V157c0-1.15.6-1.94 1.62-1.94a1.27 1.27 0 0 1 1.17.62zm-1.9 1.32v.31c0 .84.4 1.25 1 1.25s1-.44 1-1.25V157c0-.77-.38-1.25-1-1.25s-1 .41-1 1.25zM116.48 159.22v-4.58h-1.57v-.75h4v.75h-1.56v4.58zM122.38 157v.33a1.84 1.84 0 1 1-3.67 0V157a1.84 1.84 0 1 1 3.67 0zm-2.79 0v.32c0 .74.31 1.28 1 1.28s1-.54 1-1.28V157c0-.75-.31-1.28-1-1.28s-1 .52-1 1.28zM91.2 168.82v-2.37h-2.44v2.37h-.89v-5.33h.89v2.21h2.44v-2.21h.88v5.33zM96.74 166.58v.33a1.84 1.84 0 1 1-3.67 0v-.33a1.84 1.84 0 1 1 3.67 0zm-2.8 0v.32c0 .74.32 1.28 1 1.28s1-.54 1-1.28v-.32c0-.75-.32-1.28-1-1.28s-1 .54-1 1.29zM97.68 164.69h.85v.55a1.11 1.11 0 0 1 1.07-.61 1.13 1.13 0 0 1 1.17.68 1.3 1.3 0 0 1 1.26-.68 1.27 1.27 0 0 1 1.37 1.37v2.82h-.87v-2.6a.76.76 0 0 0-.79-.85.8.8 0 0 0-.82.9v2.55h-.84v-2.55c0-.61-.32-.9-.8-.9a.8.8 0 0 0-.81.89v2.56h-.86zM104.38 166.94v-.42a1.78 1.78 0 1 1 3.54 0v.48h-2.68v.1c0 .69.37 1.15 1 1.15a.8.8 0 0 0 .85-.57h.83a1.57 1.57 0 0 1-1.69 1.26 1.75 1.75 0 0 1-1.85-2zm2.7-.59a.93.93 0 1 0-1.84 0h1.84zM111 167.34c0 .46.45.85 1.2.85s1.1-.32 1.1-.83-.27-.62-.84-.76l-.88-.22a1.46 1.46 0 0 1-1.3-1.43c0-1 .89-1.58 1.93-1.58a1.7 1.7 0 0 1 1.91 1.55h-.85c0-.45-.38-.82-1.08-.82s-1 .28-1 .78c0 .35.24.6.74.71l.87.22c.8.19 1.41.57 1.41 1.48s-.85 1.63-2 1.63c-1.49 0-2-.86-2-1.58zM114.88 166.55a1.75 1.75 0 0 1 1.79-1.93 1.51 1.51 0 0 1 1.64 1.37h-.82a.8.8 0 0 0-.78-.65c-.6 0-.95.47-.95 1.23v.35c0 .77.37 1.25 1 1.25a.73.73 0 0 0 .79-.6h.82a1.49 1.49 0 0 1-1.66 1.32 1.76 1.76 0 0 1-1.79-2zM119.19 164.69h.87v.54a1 1 0 0 1 1-.6h.29v.77a1.83 1.83 0 0 0-.37 0c-.7 0-.93.43-.93 1v2.45h-.88zM121.88 166.94v-.42a1.71 1.71 0 0 1 1.77-1.9 1.73 1.73 0 0 1 1.77 1.94v.44h-2.69v.1c0 .69.38 1.15 1 1.15a.79.79 0 0 0 .84-.57h.83a1.57 1.57 0 0 1-1.68 1.26 1.74 1.74 0 0 1-1.84-2zm2.69-.59a.93.93 0 1 0-1.84 0h1.84zM126.17 166.94v-.42a1.72 1.72 0 0 1 1.77-1.9 1.73 1.73 0 0 1 1.77 1.94v.44H127v.1c0 .69.37 1.15 1 1.15a.81.81 0 0 0 .85-.57h.82a1.55 1.55 0 0 1-1.68 1.26 1.74 1.74 0 0 1-1.82-2zm2.69-.59a.92.92 0 1 0-1.83 0h1.83zM130.63 164.69h.85v.58a1.29 1.29 0 0 1 1.2-.64 1.38 1.38 0 0 1 1.45 1.54v2.65h-.86v-2.48a.85.85 0 0 0-.9-1 .88.88 0 0 0-.91 1v2.46h-.86zM158.49 155.55a1.11 1.11 0 0 0-1.19-1c-.83 0-1.31.59-1.31 1.61v.74c0 1 .43 1.68 1.33 1.68a1.08 1.08 0 0 0 1.2-1.06v-.42h-1.23v-.7h2.08v1.08a1.89 1.89 0 0 1-2.06 1.85c-1.47 0-2.21-.94-2.21-2.43v-.75a2.11 2.11 0 0 1 2.2-2.36 1.89 1.89 0 0 1 2.06 1.77zM161.23 159.22l-1.44-5.33h1l.92 4 1-4h.82l1 4 .92-4h1l-1.45 5.33h-.81l-1-3.92-1.19 3.92zM166.34 159.22l1.83-5.33h1l1.84 5.33h-.94l-.47-1.48h-1.88l-.47 1.48zm2.3-4.41l-.73 2.25h1.48l-.72-2.25zM173.94 156.89c0 1.07.46 1.67 1.28 1.67a1.08 1.08 0 0 0 1.17-1.06h.86v.06a1.85 1.85 0 0 1-2 1.76c-1.37 0-2.16-.91-2.16-2.43v-.65c0-1.53.79-2.46 2.16-2.46a1.88 1.88 0 0 1 2 1.84v.06h-.86a1.11 1.11 0 0 0-1.17-1.13c-.82 0-1.28.6-1.28 1.69zM179.28 159.28a1.23 1.23 0 0 1-1.35-1.25c0-.73.51-1.2 1.46-1.2h1v-.39a.68.68 0 0 0-.76-.74.7.7 0 0 0-.78.62h-.81c0-.71.51-1.29 1.61-1.29.92 0 1.6.45 1.6 1.38v2.81h-.83v-.51a1.22 1.22 0 0 1-1.14.57zm1.15-1.42v-.46h-.9c-.5 0-.73.24-.73.58a.66.66 0 0 0 .74.64.8.8 0 0 0 .89-.76zM182.38 153.61h.87v5.61h-.87zM184.21 157a1.74 1.74 0 0 1 1.79-2 1.51 1.51 0 0 1 1.65 1.37h-.82a.8.8 0 0 0-.78-.65c-.6 0-1 .47-1 1.23v.35c0 .77.37 1.25 1 1.25a.75.75 0 0 0 .8-.6h.82a1.5 1.5 0 0 1-1.67 1.32 1.76 1.76 0 0 1-1.78-2z"/><rect class="cls-3" x="153.18" y="111.57" width="35.9" height="35.9" rx="9.58"/><circle class="cls-4" cx="171.23" cy="129.51" r="11.62"/><path class="cls-3" d="M173.13 128.45a1.47 1.47 0 0 1 0 2.09l-2.65 2.65h4.07a1.12 1.12 0 0 1 1.12 1.12 1.13 1.13 0 0 1-1.12 1.12H168a1.16 1.16 0 0 1-1.15-1.16.74.74 0 0 1 .23-.55l4.57-4.21-4.65-4.22a.75.75 0 0 1-.23-.55 1.15 1.15 0 0 1 1.15-1.15h6.6a1.1 1.1 0 1 1 0 2.2h-4.07zM41.09 157.74c0 .46.45.85 1.2.85s1.1-.32 1.1-.82-.27-.63-.84-.77l-.87-.22a1.46 1.46 0 0 1-1.31-1.43c0-1 .89-1.58 1.93-1.58a1.71 1.71 0 0 1 1.92 1.55h-.86c0-.45-.38-.82-1.07-.82s-1 .28-1 .78c0 .35.24.6.74.71l.87.22c.8.19 1.41.57 1.41 1.48s-.85 1.63-2.05 1.63c-1.49 0-2-.86-2-1.58zM46.29 159.28a1.23 1.23 0 0 1-1.35-1.28c0-.73.51-1.2 1.46-1.2h1.05v-.39a.69.69 0 0 0-.77-.74.68.68 0 0 0-.77.62h-.82c0-.71.51-1.29 1.61-1.29.92 0 1.6.45 1.6 1.38v2.81h-.82v-.51a1.24 1.24 0 0 1-1.19.6zm1.16-1.42v-.46h-.9c-.51 0-.74.24-.74.58a.66.66 0 0 0 .74.64.81.81 0 0 0 .9-.76zM49.66 155.78h-.58v-.69h.58v-.41c0-.81.41-1.16 1.32-1.16h.38v.65h-.23c-.41 0-.62.13-.62.57v.34h.8v.69h-.79v3.44h-.86zM53.27 159.28a1.23 1.23 0 0 1-1.36-1.28c0-.73.51-1.2 1.46-1.2h1.05v-.39a.78.78 0 0 0-1.54-.12h-.81c0-.71.5-1.29 1.6-1.29.92 0 1.6.45 1.6 1.38v2.81h-.82v-.51a1.22 1.22 0 0 1-1.18.6zm1.15-1.42v-.46h-.9c-.5 0-.73.24-.73.58a.66.66 0 0 0 .74.64.81.81 0 0 0 .89-.76zM56.34 155.09h.87v.54a1 1 0 0 1 1-.6h.29v.77a1.77 1.77 0 0 0-.37 0c-.7 0-.93.43-.93 1v2.45h-.88zM59.8 153.59a.5.5 0 0 1 .51.49.49.49 0 0 1-.51.49.5.5 0 0 1-.52-.49.5.5 0 0 1 .52-.49zm-.44 1.5h.87v4.13h-.87z"/><rect class="cls-3" x="32.46" y="111.35" width="35.9" height="35.9" rx="9.58"/><circle class="cls-4" cx="50.41" cy="129.3" r="11.62"/><path class="cls-3" d="M57.88 121.83l-8.69 6.25 2.44 2.44 6.25-8.69z"/><path class="cls-3" d="M49.26 128.94l1.5 1.51-5.36 3.85 3.86-5.36m-.07-.86l-6.25 8.69 8.69-6.25-2.44-2.44z"/></g></g></svg>