<svg version="1.0" xmlns="http://www.w3.org/2000/svg" width="2624" height="400" viewBox="0 0 1968 300"><path d="M1889.8 9.9c-5.3 3.4-6 4.5-7.9 11.8-1.1 4.6-1.1 6 .4 10.7 1 3.1 3.4 7.2 5.6 9.7 3.7 4.3 4.1 4.4 9.5 4.3 8.5-.2 12.5-3.4 17.3-13.4 6.3-13.1-.2-25-14.1-25.8-5.4-.3-6.6 0-10.8 2.7zM846.1 48.6c-16.6 4.4-33.3 21.7-41 42.6-5.8 15.6-5.6 48.6.5 64.4.9 2.3 1.4 5.2 1.2 6.5-.3 2.2-1 2.5-6.8 3.1-8 .9-21.9 4.3-28.2 6.9-2.6 1-9.1 3.3-14.5 5-11.9 3.7-22.8 9-30.2 14.7-3.1 2.3-11.9 10.5-19.6 18.1-17.9 17.7-26.6 24.9-36.9 30.5-9.3 5.1-14.2 6.4-27.1 7.6-7.1.6-10.5.4-16.2-1-4-.9-7.9-2.3-8.8-3-2.1-1.7-1.9-5.2.5-8.2 5.6-7.2 15.1-31.2 15.2-38.4 0-12.6-8.4-24.5-19.4-27.5-5.3-1.4-14.7.2-19.1 3.3-11 7.7-16.8 16.8-20.7 32.6-1.9 7.9-2.2 10.9-1.6 19 .4 7 .2 10.4-.7 12.2-1.7 3.4-14.3 12.2-24.2 17-10.8 5.2-24.6 8.8-30.7 8-9.1-1.1-14.1-7.5-15.9-20.6-2.4-17.8-4.7-26.2-8.8-33.1-4.4-7.7-7.5-10.8-14.4-14.7-4.5-2.6-5.6-2.8-13.5-2.4-7.9.3-9.6.8-18.2 4.9-13.1 6.3-21.4 13-38 30.4-19.3 20.4-20.5 21.5-23.4 21.5-7.1 0-10.3-8.6-13.6-37-1.6-13.2-3.4-18.2-7.9-22.3-6.8-6.1-9.4-7-18.3-6.3l-7.8.6-3.2-4.7c-8.7-12.9-24.4-25.2-36.9-29-14.2-4.2-32.7.2-50.9 12.3-10.7 7.2-12.9 8.9-19.2 16.1-9.2 10.4-11.1 13.6-19.2 32.5-.8 2.1-2 6.8-2.6 10.5-.6 3.6-1.3 7-1.6 7.5-.3.4-.5 4.4-.5 8.7 0 9.3 2.2 18.8 5.8 24.9 3.8 6.4 12 13.1 19.4 15.9 11.5 4.2 20.3 4.1 39.6-.3 15.1-3.5 43.4-20 60.9-35.6 7.6-6.8 9-7.3 10.7-4.6.8 1.3 2.2 5.4 3.1 9.3 4.6 18.9 18 33.1 35 37 5.6 1.3 7.8 1.4 12.4.4 13.6-2.8 22.7-10 45.3-35.9 4.1-4.7 8.7-9.6 10.4-11 1.6-1.4 4.1-3.6 5.5-4.9 1.4-1.3 4.3-3.2 6.4-4.2 6.7-3 8.5-.6 10.5 14.1 3.5 25.7 14.3 42.3 32.3 49.7 6 2.4 7 2.5 19.3 2 13.5-.6 24.2-2.7 32.5-6.6 2.5-1.1 5.2-2.1 6-2.1 1.8 0 21.6-11.8 27.1-16.2 4.7-3.6 7-3.5 12.6.3 11.8 8.1 37.7 13.7 50.1 10.8 23.1-5.4 36.4-13 58.2-33.7 3.7-3.4 7.4-6.2 8.3-6.2.9 0 2.4 1.2 3.4 2.8 6.7 10.5 13.8 15.3 29.1 19.1 10 2.6 20.7 1.7 34.2-2.9 21-7.1 38.6-17.7 56.5-34.2 4.5-4.3 7.1-4.7 10.8-1.8 4.6 3.7 13.9 7.1 27.2 10.2 7.1 1.6 13.7 3.4 14.7 3.9 2.7 1.5 10.9 1.4 11.8-.1 1.3-2.1.1-3.8-5.4-7.5-7.9-5.3-12.6-10.1-20.7-20.8-10.8-14.4-10.9-14.6-9.8-17.5.5-1.4 2.2-4.4 3.7-6.6 6.6-9.9 15.4-31.8 20.3-50.8 2.9-11.1 2.4-34.6-1-48.8-2.7-11.1-9-22.8-15.3-28.5-8.2-7.5-19.1-10.4-28.7-7.9zm12.3 36.2c.9 1 2.6 5.6 3.7 10.1 1.7 6.9 2 10.5 1.7 21-.4 11.4-.8 13.7-4.2 23.6-4.3 12.5-8.5 21.4-10.8 22.9-2.7 1.6-4.5-.9-7.8-10.9-4.3-13-5.2-30.2-2.2-42.1 2.4-9.6 5.6-16.3 10.7-22.2 4-4.6 6.3-5.2 8.9-2.4zm-562.8 98.7c7.1 3.5 20.4 17.4 20.4 21.3 0 2.7-2.2 5.7-6.2 8.7-.7.6-4.4 3.5-8.2 6.5-19.9 15.7-40.7 26-52.6 26-10.5 0-14.4-5.8-12-17.6 3.9-19.8 21.3-39.4 40.9-46.1 7.5-2.6 10.2-2.4 17.7 1.2zm525.3 8.3c1.8 3.4-.1 6.2-8.3 12.4-15.4 11.6-48.5 25.5-55.5 23.3-7.2-2.3 4.9-12.5 29.9-25.1 2.5-1.2 8-3.1 12.3-4.2 4.3-1.1 9.9-3.4 12.5-5.1 5.4-3.5 7.7-3.9 9.1-1.3zM155.3 49c-1.8.4-4.3 1.5-5.7 2.3-3.5 2.4-8.3 11.3-9.6 18.2-.6 3.3-1.8 9.8-2.7 14.5-1.5 7.3-1.7 16.2-1.8 61-.1 55.2-.7 66.7-4.6 82-2.5 9.9-4.2 13.5-6.8 15-4.4 2.3-20.5.5-35.6-4-3.8-1.2-10.4-3-14.4-4.1-4.1-1-15.4-4.7-25-8-9.7-3.4-20.3-6.9-23.6-7.9-3.3-1-7.3-2.5-9-3.4-4-2.1-4.7-2-7.6 1-2.1 2.2-2.4 3.7-2.7 10.9-.4 8-.3 8.6 3.4 15.5 4.4 8.5 13.6 17.3 23.4 22.4 15.6 8.2 43.9 17.3 66 21.3 10.5 1.9 27.9 2 35.1.3 15.4-3.7 26.9-12.8 33.2-26.2 8.7-18.5 12.8-56.2 11.1-103.3-.5-13.2-.9-39.3-.9-58 0-18.7-.4-35.1-.9-36.5-1.4-4.2-7.6-11-11.3-12.5-3.8-1.6-5.1-1.7-10-.5zM1069 61.6c-16 1.5-35.8 7.5-47.4 14.3-11 6.4-26 21.4-29.4 29.3-1.8 4.3.4 9.5 5.6 13.5 4.9 3.7 6.7 3.9 14 1.8 3.5-1.1 7.2-3.3 11.4-7.1 8.9-7.8 13.8-10.9 23-14.4 8.3-3.1 23.9-6 32.8-6 5.9 0 6.1.7 2.8 7.8-6.1 12.9 1.4 50.5 21.3 106.5 5.5 15.3 7.3 19.2 11.8 25.5 5.7 7.8 13.3 10.2 20.4 6.6 6.6-3.5 9.5-9.7 9.6-21.2.1-6.1-.5-8.9-3.9-18-7.1-18.6-18.8-56.1-21.4-68.2-.9-4.1-1.9-10.9-2.2-15-.3-4.3-1.6-10.2-3-13.9-1.4-3.5-2.3-7-2-7.7.7-1.8 5.3-1.8 18.6 0 21.7 3 43.6 8 57.9 13.2 9.3 3.5 16.8 7.4 30 15.8 7.8 4.9 17.5 16.6 19.1 22.9.6 2.3 1.4 5 1.6 6 .8 2.8-2.5 14.5-5.7 20.1-6.5 11.7-20.5 26.4-38.5 40.7-9.2 7.2-22.8 16.9-23.8 16.9-.4 0-3.6 2.2-7.2 5-3.6 2.7-7.5 5.5-8.7 6.1-1.2.6-3.8 2.7-5.8 4.6-2 1.9-5.8 4.9-8.5 6.6-2.7 1.8-5 4-5.2 4.9-.4 2.3 8.5 9.2 15.3 11.7 13.9 5.2 28.2.2 56.2-19.6 28.3-20 53.4-49.2 61.1-70.8 2.2-6.1 4.2-18.5 4.2-25.5s-4.8-21-9.7-28.5c-5.8-8.8-18.1-21.6-25.1-26.1-11.1-7.2-20-12.3-24.3-14-2.4-1-5.3-2.3-6.4-3-7.4-4.5-48.9-15.3-68.5-17.8-23.1-3-55-4.3-70-3zM1804.5 84c-3.8.5-13.1 2.2-20.5 4-20.3 4.8-18.5 4.7-22.9.7-4.2-3.8-8.5-5.2-13-4.2-3.1.7-9.2 6.6-12.8 12.5-3.1 5-6 6.4-27.6 13.1-25.1 7.9-34.2 12.3-42.9 21.1-8.7 8.7-10.6 14.6-7.2 22.6 3.3 8 11 13.2 19.5 13.2 5 0 5.4-.2 11.1-6 6.6-6.6 16.5-11.9 23.7-12.8l4.4-.5-.5 4c-1.1 8.3-21.9 38-38.3 54.9-9.6 9.8-23.1 18.4-29 18.4-3 0-7.1-4.9-8.6-10.3-.8-2.7-1.2-10.8-1-22.9.3-21.4-.2-23.1-8.3-30.6-3.7-3.4-5.3-4.2-8.4-4.2-11 0-17.9 4.7-41.8 28.7-17.2 17.3-19.4 18-19.4 6.3 0-8.2-3.5-17.6-8.7-23.1-11.2-12-25.5-12.7-43.8-2.2-12.9 7.4-19.5 12.5-33.1 25.7-8.8 8.6-13.6 12.5-15.2 12.6-1.9 0-2.9-1.2-5.4-6.7-1.6-3.7-3.4-9.2-3.8-12.3-3.1-20.9-7.2-29.3-16.9-34.3-3-1.5-6.9-2.7-8.7-2.7-4.2 0-15.2 5-18.3 8.4-3.1 3.3-4.9 3.3-5.7-.2-3.2-14.5-7.2-23.1-14.3-30.5-11.8-12.5-28.3-16.2-43.6-10-23.5 9.6-51.3 39-59.6 63.1-4.7 13.4-5.9 19.3-5.9 27.8 0 23.8 11 39.8 32 46.5 28.5 9.2 72.1-11.7 103.7-49.6 3.5-4.2 4.4-4.8 5.9-3.9 1 .6 2.3 3.1 3 5.5 3.3 13 16 29.7 25.6 33.9 4.5 1.9 6.2 2.1 12.6 1.6 4.1-.4 8.4-1.2 9.5-1.9 5.8-3.3 16.9-12.2 20.3-16.4 2.1-2.7 5.3-6.4 7-8.3 1.8-1.9 5.6-6.1 8.5-9.3 5.9-6.5 19.8-16.7 22.7-16.7 4.1 0 4.5 2 3.7 20l-.7 17.1 2.7 5.4c1.9 4 3.8 6.2 6.8 7.9 9.3 5.5 17.4 4.3 28.4-4.1 7.5-5.7 10.9-9.2 28.1-28.6 5.7-6.5 10.9-11.6 11.6-11.4.7.2 1.3 4.7 1.7 11.8.6 11.5 3.2 22.3 6.7 27.8 4.6 7.4 9.6 12.2 16 15.3 5.9 2.9 7.6 3.3 15.2 3.3 7.4 0 9.5-.4 16.3-3.4 14.4-6.2 29.5-18.9 43-36.4 3.2-4.2 6.6-7.7 7.3-7.7.8 0 2.7 2.4 4.4 5.4 9.3 16.4 26.4 23 44.8 17 12-3.9 27.6-14.4 38.5-26 6.6-7.1 8.9-7 9.8.1 1 7.8 6.7 20.3 11.6 25.6 8.7 9.3 20.6 11.5 32.3 6.1 9.3-4.3 15.7-9.7 35.8-30.3 18.2-18.7 30.4-29.4 34.9-30.5 6.4-1.6 8.9 9.3 5.9 26.2-2.9 16.5-7 25-14.4 30.3-3.8 2.6-18.5 7.2-25.5 7.8-6.9.7-7.6 1.7-5.2 7.8 2.4 6.4 9 12.8 14.8 14.5 7.6 2.1 20.7.8 26.5-2.6 16.1-9.5 21.2-15.9 27.1-34.2 3.8-11.8 4.2-14.1 4.8-27 .7-16.5-.4-23.8-5-33.1-5.4-10.8-14.5-17.1-24.6-17.1-4.9 0-7.6.7-14.3 3.8-9.6 4.5-19.8 13.2-40.3 34.3-25.9 26.7-31.4 29.7-36.4 19.6-2.1-4.2-2.5-6.9-3.1-19.5-.6-12-1.1-15.4-2.8-18.7-2.7-5.3-5.7-8.4-9.9-10.2-7.4-3-14.7.9-27.4 14.9-11.2 12.5-23.7 23.4-32.9 28.9-5.4 3.2-7.8 4-12 4.1-9.7.2-12.9-6.3-13-26.3 0-6.4.7-9.8 4.6-21.5 2.5-7.6 5.3-15.1 6.2-16.6 1.7-2.9 7.1-5.6 16.2-8.2 32.8-9.1 57.7-18 74-26.4 11.1-5.7 11.9-7.5 5.2-10.9-2.4-1.2-4.8-2.6-5.5-3.1-.7-.6-4.7-2.4-9-4.1-8.3-3.3-12.8-3.6-27.2-2.1zm-440.9 63.1c1.9 1.1 4.6 4.2 6.1 6.7 9.2 16.3 12.1 20.8 15 23.1 5 3.9 4.4 6.1-3.9 14.3-15.9 15.6-36.2 27.5-51 29.8-9.4 1.5-12 .9-15.3-3.4-11.5-15.1 6.3-51.4 33.5-68 8.3-5.1 10.8-5.5 15.6-2.5z"/></svg>