<svg width="75.313" height="75.313" xmlns="http://www.w3.org/2000/svg"><path d="M37.656 57.656c5.521 0 10.235-1.953 14.14-5.86 3.907-3.905 5.86-8.619 5.86-14.14 0-5.52-1.953-10.234-5.86-14.14-3.905-3.907-8.619-5.86-14.14-5.86-2.708 0-5.468.625-8.281 1.875 3.438 1.563 6.224 3.985 8.36 7.266 2.135 3.281 3.203 6.9 3.203 10.86 0 3.958-1.068 7.577-3.204 10.859-2.135 3.28-4.921 5.703-8.359 7.265 2.813 1.25 5.573 1.875 8.281 1.875zm26.719-31.093l10.938 11.093L64.374 48.75v15.625H48.75L37.656 75.313 26.563 64.374H10.938V48.75L0 37.656l10.938-11.093V10.938h15.624L37.657 0 48.75 10.938h15.625zm13.281 44.453"/></svg>