<svg xmlns="http://www.w3.org/2000/svg" viewBox="0 0 288 288"><linearGradient id="a" gradientUnits="userSpaceOnUse" x1="144" y1="52.935" x2="144" y2="267.732"><stop offset="0" stop-color="#2ca2dc"/><stop offset="1" stop-color="#fff"/></linearGradient><path d="M57.3 267.2V74.8c0-11.8 9.6-21.4 21.4-21.4h130.7c11.8 0 21.4 9.6 21.4 21.4v192.4H57.3z" fill="none" stroke="url(#a)" stroke-miterlimit="10"/><linearGradient id="b" gradientUnits="userSpaceOnUse" x1="144" y1="70.744" x2="144" y2="267.232"><stop offset="0" stop-color="#8acdeb"/><stop offset="1" stop-color="#fff"/></linearGradient><path d="M62.1 267.2V83.4c0-7 5.7-12.6 12.6-12.6h138.5c7 0 12.6 5.7 12.6 12.6v183.8H62.1z" fill="url(#b)"/><path d="M165.1 133.9h-39.6c-3.8 0-6.9 3.1-6.9 6.9 0 1.2.5 2.4 1.4 3.3l27.4 25.3-27.4 25.3c-.9.8-1.4 2-1.4 3.3 0 3.8 3.1 6.9 6.9 6.9h39.6a6.7 6.7 0 0 0 0-13.4h-24.4l15.9-15.9c3.5-3.5 3.5-9.1 0-12.6l-15.9-15.9h24.4c3.7 0 6.7-3 6.7-6.7-.1-3.5-3-6.5-6.7-6.5z" fill="#2ca2dc"/><g><path d="M214 123c-4.1 0-7.5-3.3-7.5-7.5V77.8c0-1.6-1.3-3-3-3h-8.9c-3 0-5.6-1.7-6.8-4.4-1.2-2.7-.8-5.8 1.2-8L225.1 21c1.4-1.6 3.5-2.6 5.6-2.6s4.2.9 5.6 2.6l36.1 41.4c1.9 2.2 2.4 5.3 1.2 8s-3.8 4.4-6.8 4.4h-8.9c-1.6 0-3 1.3-3 3v37.7c0 4.1-3.3 7.5-7.5 7.5H214z" fill="#b8dbeb"/><path d="M230.7 20.8c1.4 0 2.9.6 3.9 1.8L270.7 64c2.9 3.4.5 8.6-3.9 8.6h-8.9c-2.9 0-5.2 2.3-5.2 5.2v37.7c0 2.9-2.3 5.2-5.2 5.2H214c-2.9 0-5.2-2.3-5.2-5.2V77.8c0-2.9-2.3-5.2-5.2-5.2h-8.9c-4.5 0-6.9-5.3-3.9-8.6l36.1-41.4c1-1.2 2.4-1.8 3.8-1.8m0-4.5c-2.8 0-5.5 1.2-7.3 3.3l-36 41.4c-2.5 2.9-3.1 6.9-1.5 10.4s5 5.7 8.8 5.7h8.9c.4 0 .7.3.7.7v37.7c0 5.3 4.4 9.7 9.7 9.7h33.6c5.3 0 9.7-4.4 9.7-9.7V77.8c0-.4.3-.7.7-.7h8.9c3.9 0 7.2-2.2 8.8-5.7 1.6-3.5 1-7.5-1.5-10.4l-36.1-41.4c-1.9-2.1-4.5-3.3-7.4-3.3z" fill="#fff"/></g></svg>