<svg xmlns="http://www.w3.org/2000/svg" viewBox="0 0 218.18 249.88"><defs><linearGradient id="a" x1="87.88" y1="31.83" x2="87.88" y2="247.88" gradientTransform="translate(0 2)" gradientUnits="userSpaceOnUse"><stop offset="0" stop-color="#33a2db"/><stop offset=".09" stop-color="#38a4dc" stop-opacity=".97"/><stop offset=".22" stop-color="#47abdd" stop-opacity=".9"/><stop offset=".36" stop-color="#61b8e3" stop-opacity=".77"/><stop offset=".51" stop-color="#84c7e8" stop-opacity=".6"/><stop offset=".67" stop-color="#b2dcf0" stop-opacity=".38"/><stop offset=".83" stop-color="#e8f5fd" stop-opacity=".11"/><stop offset=".9" stop-color="#fff" stop-opacity="0"/></linearGradient><linearGradient id="b" x1="87.78" y1="52.36" x2="87.78" y2="248.76" gradientUnits="userSpaceOnUse"><stop offset="0" stop-color="#31a2db"/><stop offset=".1" stop-color="#33a4dd" stop-opacity=".97"/><stop offset=".23" stop-color="#40abdf" stop-opacity=".9"/><stop offset=".38" stop-color="#5db8e4" stop-opacity=".78"/><stop offset=".53" stop-color="#81c7e9" stop-opacity=".6"/><stop offset=".7" stop-color="#b0dbf2" stop-opacity=".38"/><stop offset=".88" stop-color="#e7f6fc" stop-opacity=".12"/><stop offset=".95" stop-color="#fff" stop-opacity="0"/></linearGradient></defs><g data-name="Layer 2"><g data-name="update found"><path d="M174.62 109v139.75H1.12V56.35A21.43 21.43 0 0 1 22.53 35h112.35" fill="none" stroke-linecap="round" stroke-miterlimit="10" stroke-width="2.25" stroke="url(#a)"/><path d="M157.88 109a12 12 0 0 1-11.95-12V60.9h-7.36a11.85 11.85 0 0 1-10.85-7 13.49 13.49 0 0 1-.57-1.54H18.53A12.6 12.6 0 0 0 5.93 65v183.8h163.69V109z" fill="url(#b)"/><path d="M100.48 135.45a8.87 8.87 0 0 1 0 12.54v.06L84.58 164H109a6.7 6.7 0 0 1 0 13.4H69.38a6.91 6.91 0 0 1-6.9-6.9 4.35 4.35 0 0 1 1.4-3.3l27.4-25.3-27.4-25.33a4.72 4.72 0 0 1-1.41-3.3 6.92 6.92 0 0 1 6.91-6.9H109a6.6 6.6 0 0 1 0 13.2H84.58z" fill="#fff"/><path d="M157.93 104.6a7.49 7.49 0 0 1-7.5-7.48V59.4a3 3 0 0 0-3-3h-8.89a7.48 7.48 0 0 1-5.61-12.4L169 2.6a7.59 7.59 0 0 1 5.6-2.6 7.25 7.25 0 0 1 5.6 2.6L216.34 44a7.57 7.57 0 0 1 1.2 8 7.35 7.35 0 0 1-6.8 4.4h-8.86a3 3 0 0 0-3 3v37.7a7.5 7.5 0 0 1-7.48 7.5h-33.47z" fill="#31a2db"/></g></g></svg>