<svg width="18.035" height="23.994" xmlns="http://www.w3.org/2000/svg"><path d="M8.701 20.62c1.512 0 2.786-.52 3.823-1.557 1.038-1.037 1.556-2.311 1.556-3.823 0-1.547-.21-3.058-.633-4.535-1.09 1.441-2.83 2.408-5.22 2.9-2.11.458-3.165 1.618-3.165 3.48 0 .985.352 1.82 1.055 2.506.703.685 1.565 1.028 2.584 1.028zM10.705 0a20.188 20.188 0 0 1 5.353 6.67 18.339 18.339 0 0 1 1.977 8.36c0 2.46-.879 4.57-2.637 6.327-1.757 1.758-3.884 2.637-6.38 2.637-2.497 0-4.623-.879-6.381-2.637C.879 19.6 0 17.49 0 15.03c0-3.797 1.213-7.136 3.639-10.02v.423c0 1.16.386 2.144 1.16 2.953.773.808 1.74 1.213 2.9 1.213 1.125 0 2.048-.396 2.769-1.187.72-.79 1.08-1.784 1.08-2.98 0-.702-.07-1.511-.21-2.425-.14-.914-.281-1.635-.422-2.162zm11.813 26.262"/></svg>