<svg style="" width="66.562500" height="79.531250" version="1.1" xmlns="http://www.w3.org/2000/svg">
<path d="M43.281250 16.796878 L43.281250 13.359378 L40.000000 13.359378 L40.000000 16.796878 Z M26.562500 16.796878 L26.562500 13.359378 L23.281250 13.359378 L23.281250 16.796878 Z M45.000000 7.265628 C50.520861 11.223981 53.281250 16.588511 53.281250 23.359378 L13.281250 23.359378 C13.281250 16.484343 15.989556 11.119814 21.406250 7.265628 L17.031250 2.890628 C16.197913 2.057290 16.197913 1.276048 17.031250 0.546878 C17.864587 -0.182293 18.645830 -0.182293 19.375000 0.546878 L24.375000 5.546878 C27.083347 4.088537 30.052067 3.359378 33.281250 3.359378 C36.406266 3.359378 39.322903 4.088537 42.031250 5.546878 L47.031250 0.546878 C47.864587 -0.182293 48.645830 -0.182293 49.375000 0.546878 C50.104170 1.276048 50.104170 2.057290 49.375000 2.890628 Z M61.562500 26.796878 C62.916673 26.796878 64.088537 27.291664 65.078125 28.281253 C66.067713 29.270841 66.562500 30.442704 66.562500 31.796878 L66.562500 55.078128 C66.562500 56.536468 66.067713 57.734373 65.078125 58.671878 C64.088537 59.609382 62.916673 60.078128 61.562500 60.078128 C60.208327 60.078128 59.036463 59.609382 58.046875 58.671878 C57.057287 57.734373 56.562500 56.536468 56.562500 55.078128 L56.562500 31.796878 C56.562500 30.442704 57.057287 29.270841 58.046875 28.281253 C59.036463 27.291664 60.208327 26.796878 61.562500 26.796878 Z M5.000000 26.796878 C6.354173 26.796878 7.526037 27.291664 8.515625 28.281253 C9.505213 29.270841 10.000000 30.442704 10.000000 31.796878 L10.000000 55.078128 C10.000000 56.536468 9.505213 57.734373 8.515625 58.671878 C7.526037 59.609382 6.354173 60.078128 5.000000 60.078128 C3.645827 60.078128 2.473963 59.609382 1.484375 58.671878 C0.494787 57.734373 0.000000 56.536468 0.000000 55.078128 L0.000000 31.796878 C0.000000 30.442704 0.494787 29.270841 1.484375 28.281253 C2.473963 27.291664 3.645827 26.796878 5.000000 26.796878 Z M13.281250 60.078128 L13.281250 26.796878 L53.281250 26.796878 L53.281250 60.078128 C53.281250 61.015632 52.968753 61.796875 52.343750 62.421878 C51.718747 63.046881 50.937505 63.359378 50.000000 63.359378 L46.562500 63.359378 L46.562500 75.078128 C46.562500 76.536468 46.067713 77.734373 45.078125 78.671878 C44.088537 79.609382 42.916673 80.078128 41.562500 80.078128 C40.208327 80.078128 39.036463 79.609382 38.046875 78.671878 C37.057287 77.734373 36.562500 76.536468 36.562500 75.078128 L36.562500 63.359378 L30.000000 63.359378 L30.000000 75.078128 C30.000000 76.536468 29.505213 77.734373 28.515625 78.671878 C27.526037 79.609382 26.354173 80.078128 25.000000 80.078128 C23.645827 80.078128 22.473963 79.609382 21.484375 78.671878 C20.494787 77.734373 20.000000 76.536468 20.000000 75.078128 L20.000000 63.359378 L16.562500 63.359378 C15.624995 63.359378 14.843753 63.046881 14.218750 62.421878 C13.593747 61.796875 13.281250 61.015632 13.281250 60.078128 Z M73.281250 73.437503" style="fill:black"/>
</svg>