<svg style="" width="66.562500" height="66.562500" version="1.1" xmlns="http://www.w3.org/2000/svg">
<path d="M53.281250 20.000000 L53.281250 13.281250 L13.281250 13.281250 L13.281250 20.000000 Z M53.281250 30.000000 L53.281250 23.281250 L13.281250 23.281250 L13.281250 30.000000 Z M53.281250 40.000000 L53.281250 33.281250 L13.281250 33.281250 L13.281250 40.000000 Z M66.562500 6.562500 L66.562500 66.562500 L53.281250 53.281250 L6.562500 53.281250 C4.791658 53.281250 3.255215 52.604173 1.953125 51.250000 C0.651035 49.895827 0.000000 48.333342 0.000000 46.562500 L0.000000 6.562500 C0.000000 4.791658 0.651035 3.255215 1.953125 1.953125 C3.255215 0.651035 4.791658 -0.000000 6.562500 -0.000000 L60.000000 -0.000000 C61.770842 -0.000000 63.307285 0.651035 64.609375 1.953125 C65.911465 3.255215 66.562500 4.791658 66.562500 6.562500 Z M73.281250 66.640625" style="fill:black"/>
</svg>