<svg viewBox="0 0 221.5 197.06" xmlns="http://www.w3.org/2000/svg" xmlns:xlink="http://www.w3.org/1999/xlink"><linearGradient id="a" gradientUnits="userSpaceOnUse" x1="-51.25" x2="-51.25" y1="737.06" y2="540"><stop offset="0" stop-color="#33a2db"/><stop offset=".09" stop-color="#38a4dc" stop-opacity=".97"/><stop offset=".22" stop-color="#47abdd" stop-opacity=".9"/><stop offset=".36" stop-color="#61b8e3" stop-opacity=".77"/><stop offset=".51" stop-color="#84c7e8" stop-opacity=".6"/><stop offset=".67" stop-color="#b2dcf0" stop-opacity=".38"/><stop offset=".83" stop-color="#e8f5fd" stop-opacity=".11"/><stop offset=".9" stop-color="#fff" stop-opacity="0"/></linearGradient><linearGradient id="b" gradientUnits="userSpaceOnUse" x1="-51.25" x2="-51.25" y1="724.01" y2="541.12"><stop offset="0" stop-color="#31a2db"/><stop offset=".1" stop-color="#33a4dd" stop-opacity=".97"/><stop offset=".23" stop-color="#40abdf" stop-opacity=".9"/><stop offset=".38" stop-color="#5db8e4" stop-opacity=".78"/><stop offset=".53" stop-color="#81c7e9" stop-opacity=".6"/><stop offset=".68" stop-color="#b0dbf2" stop-opacity=".38"/><stop offset=".83" stop-color="#e7f6fc" stop-opacity=".12"/><stop offset=".95" stop-color="#fff" stop-opacity="0"/></linearGradient><path d="m25 735.94h-152.53a33.35 33.35 0 0 1 -33.35-33.35v-161.47h219.25v161.47a33.34 33.34 0 0 1 -33.37 33.35z" fill="none" stroke="url(#a)" stroke-linecap="round" stroke-miterlimit="10" stroke-width="2.25" transform="translate(162 -540)"/><path d="m45.87 680.25v-139.13h-194.25v162.93a20 20 0 0 0 20 20h154.29a20 20 0 0 0 20-20v-22.67h-194.28v-1.13zm-130.25 37.31h66.25a1.13 1.13 0 0 1 1.13 1.13 1.13 1.13 0 0 1 -1.13 1.13h-66.25a1.13 1.13 0 0 1 -1.12-1.13 1.13 1.13 0 0 1 1.12-1.13z" fill="url(#b)" transform="translate(162 -540)"/><path d="m110.75 149.53 3.47 3.47-.87.87-1.99-1.99v9.13h-1.22v-9.13l-1.99 1.99-.87-.87z" fill="#fff"/><path d="m104.97 154.95h4.27v1.23h-3.04v9.1h9.1v-9.1h-3.04v-1.23h4.27v11.56h-11.56z" fill="#fff"/><rect fill="#fff" height="42.64" rx="11.38" width="42.64" x="89.43" y="55.38"/><g transform="translate(162 -540)"><path d="m-45.16 606.64h-11.53a4.3 4.3 0 0 0 -4.3 4.3v11.53a4.29 4.29 0 0 0 4.3 4.3h11.53a4.3 4.3 0 0 0 4.3-4.3v-11.53a4.31 4.31 0 0 0 -4.3-4.3zm-2 11h-3.26v3.25a.69.69 0 0 1 -.69.7.7.7 0 0 1 -.7-.7v-3.25h-3.25a.7.7 0 0 1 -.7-.7.69.69 0 0 1 .7-.69h3.25v-3.25a.7.7 0 0 1 .7-.7.69.69 0 0 1 .69.7v3.25h3.26a.69.69 0 0 1 .69.69.69.69 0 0 1 -.72.7z" fill="#33a4dd"/><path d="m-59.87 650.45h-2.42l-.58 1.71h-1l2.29-6.34h1.06l2.29 6.34h-1zm-2.17-.79h1.92l-.94-2.78z" fill="#fff"/><path d="m-58 649.85c0-1.46.78-2.38 1.94-2.38a1.58 1.58 0 0 1 1.45.84v-2.49h1v6.34h-.93v-.78a1.61 1.61 0 0 1 -1.47.86c-1.2 0-1.99-.93-1.99-2.39zm1 0c0 1 .47 1.59 1.23 1.59s1.21-.62 1.21-1.59-.49-1.58-1.21-1.58-1.23.61-1.23 1.58z" fill="#fff"/><path d="m-52.87 649.85c0-1.46.78-2.38 1.94-2.38a1.58 1.58 0 0 1 1.45.84v-2.49h1v6.34h-.93v-.78a1.62 1.62 0 0 1 -1.48.86c-1.2 0-1.98-.93-1.98-2.39zm1 0c0 1 .47 1.59 1.23 1.59s1.21-.62 1.21-1.59-.49-1.58-1.21-1.58-1.26.61-1.26 1.58z" fill="#fff"/><path d="m-44.49 646.45v1.09h.88v.75h-.88v2.55c0 .4.18.58.57.58h.31v.75a2.37 2.37 0 0 1 -.53.05c-.94 0-1.3-.36-1.3-1.25v-2.66h-.67v-.75h.67v-1.09z" fill="#fff"/><path d="m-43.15 649.85a2.15 2.15 0 0 1 2.2-2.39 2.15 2.15 0 0 1 2.19 2.39 2.15 2.15 0 0 1 -2.19 2.4 2.15 2.15 0 0 1 -2.2-2.4zm3.42 0c0-1-.48-1.61-1.22-1.61s-1.23.59-1.23 1.61.48 1.62 1.23 1.62 1.22-.59 1.22-1.62z" fill="#fff"/><path d="m-72.71 663v-2.8h-3.29v2.8h-1v-6.34h1v2.68h3.26v-2.68h1v6.34z" fill="#fff"/><path d="m-70.88 660.65a2.14 2.14 0 0 1 2.19-2.39 2.14 2.14 0 0 1 2.19 2.39 2.15 2.15 0 0 1 -2.19 2.4 2.15 2.15 0 0 1 -2.19-2.4zm3.42 0c0-1-.49-1.61-1.23-1.61s-1.22.59-1.22 1.61.48 1.62 1.22 1.62 1.23-.59 1.23-1.62z" fill="#fff"/><path d="m-65.76 658.34h.9v.78a1.35 1.35 0 0 1 1.31-.86 1.26 1.26 0 0 1 1.29.91 1.52 1.52 0 0 1 1.45-.91 1.43 1.43 0 0 1 1.51 1.53v3.21h-1v-3a.84.84 0 0 0 -.88-.95.94.94 0 0 0 -.95 1v2.95h-.87v-3a.81.81 0 0 0 -.87-.88 1 1 0 0 0 -1 1v2.88h-1z" fill="#fff"/><path d="m-54.38 661.61a1.86 1.86 0 0 1 -2 1.44 2.12 2.12 0 0 1 -2.18-2.38 2.15 2.15 0 0 1 2.14-2.41 2.05 2.05 0 0 1 2.09 2.3v.33h-3.27v.11a1.21 1.21 0 0 0 1.25 1.33 1 1 0 0 0 1.06-.67zm-3.2-1.38h2.31a1.14 1.14 0 0 0 -1.14-1.23 1.19 1.19 0 0 0 -1.17 1.23z" fill="#fff"/><path d="m-51 661.22c.09.63.69 1 1.53 1s1.38-.41 1.38-1-.33-.8-1.18-1l-.69-.15c-1.27-.27-1.85-.86-1.85-1.77 0-1.09 1-1.83 2.31-1.83a2 2 0 0 1 2.29 1.87h-1a1.21 1.21 0 0 0 -1.36-1c-.74 0-1.29.36-1.29.94s.33.77 1.15.94l.7.15c1.32.28 1.87.81 1.87 1.73 0 1.2-.94 2-2.42 2s-2.39-.72-2.45-1.85z" fill="#fff"/><path d="m-43.24 659.93a1.05 1.05 0 0 0 -1.09-.88c-.73 0-1.21.61-1.21 1.6s.49 1.61 1.22 1.61a1 1 0 0 0 1.08-.86h.91a1.86 1.86 0 0 1 -2 1.65 2.13 2.13 0 0 1 -2.18-2.4 2.14 2.14 0 0 1 2.18-2.39 1.87 1.87 0 0 1 2 1.67z" fill="#fff"/><path d="m-41.65 658.34h.9v.79a1.12 1.12 0 0 1 1.12-.86 2.17 2.17 0 0 1 .32 0v.88a1.35 1.35 0 0 0 -.42 0 1 1 0 0 0 -1 1.07v2.78h-.95z" fill="#fff"/><path d="m-34.93 661.61a1.88 1.88 0 0 1 -2 1.44 2.12 2.12 0 0 1 -2.18-2.38 2.14 2.14 0 0 1 2.11-2.41 2 2 0 0 1 2.08 2.3v.33h-3.27v.11a1.21 1.21 0 0 0 1.25 1.33 1 1 0 0 0 1.06-.67zm-3.21-1.38h2.31a1.14 1.14 0 0 0 -1.17-1.23 1.2 1.2 0 0 0 -1.14 1.23z" fill="#fff"/><path d="m-30.18 661.61a1.87 1.87 0 0 1 -2 1.44 2.12 2.12 0 0 1 -2.18-2.38 2.14 2.14 0 0 1 2.14-2.41 2 2 0 0 1 2.08 2.3v.33h-3.26v.11a1.21 1.21 0 0 0 1.25 1.33 1.05 1.05 0 0 0 1.07-.67zm-3.21-1.38h2.31a1.14 1.14 0 0 0 -1.13-1.23 1.2 1.2 0 0 0 -1.18 1.23z" fill="#fff"/><path d="m-29.4 658.34h.91v.77a1.51 1.51 0 0 1 1.46-.85 1.52 1.52 0 0 1 1.6 1.71v3h-.95v-2.8c0-.7-.33-1.08-1-1.08a1.08 1.08 0 0 0 -1.1 1.19v2.72h-.95z" fill="#fff"/></g></svg>