<svg xmlns="http://www.w3.org/2000/svg" xmlns:xlink="http://www.w3.org/1999/xlink" viewBox="0 0 221.5 197.06"><defs><style>.cls-1{fill:none;stroke-linecap:round;stroke-miterlimit:10;stroke-width:2.25px;stroke:url(#linear-gradient);}.cls-2{fill:url(#linear-gradient-2);}.cls-3{fill:#fff;}.cls-4{fill:#33a4dd;}</style><linearGradient id="linear-gradient" x1="110.75" y1="197.06" x2="110.75" gradientUnits="userSpaceOnUse"><stop offset="0" stop-color="#33a2db"/><stop offset="0.09" stop-color="#38a4dc" stop-opacity="0.97"/><stop offset="0.22" stop-color="#47abdd" stop-opacity="0.9"/><stop offset="0.36" stop-color="#61b8e3" stop-opacity="0.77"/><stop offset="0.51" stop-color="#84c7e8" stop-opacity="0.6"/><stop offset="0.67" stop-color="#b2dcf0" stop-opacity="0.38"/><stop offset="0.83" stop-color="#e8f5fd" stop-opacity="0.11"/><stop offset="0.9" stop-color="#fff" stop-opacity="0"/></linearGradient><linearGradient id="linear-gradient-2" x1="110.75" y1="184.01" x2="110.75" y2="1.12" gradientUnits="userSpaceOnUse"><stop offset="0" stop-color="#31a2db"/><stop offset="0.1" stop-color="#33a4dd" stop-opacity="0.97"/><stop offset="0.23" stop-color="#40abdf" stop-opacity="0.9"/><stop offset="0.38" stop-color="#5db8e4" stop-opacity="0.78"/><stop offset="0.53" stop-color="#81c7e9" stop-opacity="0.6"/><stop offset="0.68" stop-color="#b0dbf2" stop-opacity="0.38"/><stop offset="0.83" stop-color="#e7f6fc" stop-opacity="0.12"/><stop offset="0.95" stop-color="#fff" stop-opacity="0"/></linearGradient></defs><title>ios-safari</title><g id="Layer_2" data-name="Layer 2"><g id="iOS_Safari" data-name="iOS Safari"><path class="cls-1" d="M187,195.94H34.47A33.35,33.35,0,0,1,1.12,162.59V1.12H220.37V162.59A33.34,33.34,0,0,1,187,195.94Z"/><path class="cls-2" d="M13.63,1.12V164.05a20,20,0,0,0,20,20H187.91a20,20,0,0,0,20-20V1.12ZM53.32,97.47H49.66V88.71h-.17l-2.65,1.81V87.39l2.82-1.91h3.66Zm62.13,0h-9.22V95.22l4.15-4c1-.92,1.29-1.44,1.29-2a1.06,1.06,0,0,0-1.13-1.07,1.12,1.12,0,0,0-1.14,1.13v.26H106v-.22c0-2.3,2-4,4.76-4s4.53,1.4,4.53,3.48c0,1.31-.51,2.2-2.21,3.86l-1.89,1.87v.14h4.29Zm55.57.21c-3.36,0-4.88-1.87-4.88-3.91h3.35c0,.72.77,1.19,1.62,1.19a1.27,1.27,0,0,0,1.41-1.17c0-.6-.48-1.18-1.46-1.18h-1.39V90H171c.82,0,1.3-.44,1.3-1.07s-.56-1-1.31-1a1.3,1.3,0,0,0-1.35,1.23h-3.4c.1-2.46,1.92-3.88,4.94-3.88,2.59,0,4.68,1.26,4.68,3.21A2.42,2.42,0,0,1,173.71,91v.19a2.63,2.63,0,0,1,2.46,2.86C176.17,96.41,173.65,97.68,171,97.68Z"/><rect class="cls-3" x="92.74" y="111.35" width="35.9" height="35.9" rx="9.58"/><path class="cls-4" d="M115.82,120.83h-9.71a3.62,3.62,0,0,0-3.62,3.61v9.71a3.62,3.62,0,0,0,3.62,3.62h9.71a3.62,3.62,0,0,0,3.62-3.62v-9.71A3.62,3.62,0,0,0,115.82,120.83Zm-1.71,9.25h-2.74v2.74a.59.59,0,1,1-1.17,0v-2.74h-2.74a.59.59,0,1,1,0-1.17h2.74v-2.74a.59.59,0,0,1,1.17,0v2.74h2.74a.59.59,0,0,1,0,1.17Z"/><path class="cls-3" d="M99.24,159.22l1.83-5.33h1l1.83,5.33H103l-.47-1.48h-1.87l-.48,1.48Zm2.3-4.41-.72,2.25h1.47l-.72-2.25Z"/><path class="cls-3" d="M107.15,155.68h0v-2.07h.87v5.61h-.84v-.63h0a1.3,1.3,0,0,1-1.2.68c-1,0-1.62-.76-1.62-1.94V157c0-1.15.6-1.94,1.62-1.94A1.27,1.27,0,0,1,107.15,155.68Zm-1.9,1.32v.31c0,.84.4,1.25,1,1.25s1-.44,1-1.25V157c0-.77-.38-1.25-1-1.25S105.25,156.16,105.25,157Z"/><path class="cls-3" d="M111.79,155.68h0v-2.07h.87v5.61h-.84v-.63h0a1.3,1.3,0,0,1-1.2.68c-1,0-1.62-.76-1.62-1.94V157c0-1.15.6-1.94,1.62-1.94A1.27,1.27,0,0,1,111.79,155.68Zm-1.9,1.32v.31c0,.84.4,1.25,1,1.25s1-.44,1-1.25V157c0-.77-.38-1.25-1-1.25S109.89,156.16,109.89,157Z"/><path class="cls-3" d="M116.48,159.22v-4.58h-1.57v-.75h4v.75h-1.56v4.58Z"/><path class="cls-3" d="M122.38,157v.33a1.84,1.84,0,1,1-3.67,0V157a1.84,1.84,0,1,1,3.67,0Zm-2.79,0v.32c0,.74.31,1.28,1,1.28s1-.54,1-1.28V157c0-.75-.31-1.28-1-1.28S119.59,156.24,119.59,157Z"/><path class="cls-3" d="M91.2,168.82v-2.37H88.76v2.37h-.89v-5.33h.89v2.21H91.2v-2.21h.88v5.33Z"/><path class="cls-3" d="M96.74,166.58v.33a1.84,1.84,0,1,1-3.67,0v-.33a1.84,1.84,0,1,1,3.67,0Zm-2.8,0v.32c0,.74.32,1.28,1,1.28s1-.54,1-1.28v-.32c0-.75-.32-1.28-1-1.28S93.94,165.84,93.94,166.59Z"/><path class="cls-3" d="M97.68,164.69h.85v.55h0a1.11,1.11,0,0,1,1.07-.61,1.13,1.13,0,0,1,1.17.68h0a1.3,1.3,0,0,1,1.26-.68,1.27,1.27,0,0,1,1.37,1.37v2.82h-.87v-2.6a.76.76,0,0,0-.79-.85.8.8,0,0,0-.82.9v2.55h-.84v-2.55c0-.61-.32-.9-.8-.9a.8.8,0,0,0-.81.89v2.56h-.86Z"/><path class="cls-3" d="M104.38,166.94v-.42a1.78,1.78,0,1,1,3.54,0V167h-2.68v.1c0,.69.37,1.15,1,1.15a.8.8,0,0,0,.85-.57h.83a1.57,1.57,0,0,1-1.69,1.26A1.75,1.75,0,0,1,104.38,166.94Zm2.7-.59h0a.93.93,0,1,0-1.84,0h1.84Z"/><path class="cls-3" d="M111,167.34c0,.46.45.85,1.2.85s1.1-.32,1.1-.83-.27-.62-.84-.76l-.88-.22a1.46,1.46,0,0,1-1.3-1.43c0-1,.89-1.58,1.93-1.58a1.7,1.7,0,0,1,1.91,1.55h-.85c0-.45-.38-.82-1.08-.82s-1,.28-1,.78c0,.35.24.6.74.71l.87.22c.8.19,1.41.57,1.41,1.48s-.85,1.63-2,1.63c-1.49,0-2-.86-2-1.58Z"/><path class="cls-3" d="M114.88,166.55a1.75,1.75,0,0,1,1.79-1.93,1.51,1.51,0,0,1,1.64,1.37h-.82a.8.8,0,0,0-.78-.65c-.6,0-.95.47-.95,1.23v.35c0,.77.37,1.25,1,1.25a.73.73,0,0,0,.79-.6h.82a1.49,1.49,0,0,1-1.66,1.32,1.76,1.76,0,0,1-1.79-2Z"/><path class="cls-3" d="M119.19,164.69h.87v.54h0a1,1,0,0,1,1-.6l.29,0v.77a1.83,1.83,0,0,0-.37,0c-.7,0-.93.43-.93,1v2.45h-.88Z"/><path class="cls-3" d="M121.88,166.94v-.42a1.71,1.71,0,0,1,1.77-1.9,1.73,1.73,0,0,1,1.77,1.94V167h-2.69v.1c0,.69.38,1.15,1,1.15a.79.79,0,0,0,.84-.57h.83a1.57,1.57,0,0,1-1.68,1.26A1.74,1.74,0,0,1,121.88,166.94Zm2.69-.59h0a.93.93,0,1,0-1.84,0h1.84Z"/><path class="cls-3" d="M126.17,166.94v-.42a1.72,1.72,0,0,1,1.77-1.9,1.73,1.73,0,0,1,1.77,1.94V167H127v.1c0,.69.37,1.15,1,1.15a.81.81,0,0,0,.85-.57h.82a1.55,1.55,0,0,1-1.68,1.26A1.74,1.74,0,0,1,126.17,166.94Zm2.69-.59h0a.92.92,0,1,0-1.83,0h1.83Z"/><path class="cls-3" d="M130.63,164.69h.85v.58h0a1.29,1.29,0,0,1,1.2-.64,1.38,1.38,0,0,1,1.45,1.54v2.65h-.86v-2.48a.85.85,0,0,0-.9-1,.88.88,0,0,0-.91,1v2.46h-.86Z"/><path class="cls-3" d="M158.49,155.55a1.11,1.11,0,0,0-1.19-1c-.83,0-1.31.59-1.31,1.61v.74c0,1,.43,1.68,1.33,1.68a1.08,1.08,0,0,0,1.2-1.06v-.42h-1.23v-.7h2.08v1.08a1.89,1.89,0,0,1-2.06,1.85c-1.47,0-2.21-.94-2.21-2.43v-.75a2.11,2.11,0,0,1,2.2-2.36,1.89,1.89,0,0,1,2.06,1.77Z"/><path class="cls-3" d="M161.23,159.22l-1.44-5.33h1l.92,4h0l1-4h.82l1,4h0l.92-4h1L165,159.22h-.81l-1-3.92h0L162,159.22Z"/><path class="cls-3" d="M166.34,159.22l1.83-5.33h1l1.84,5.33h-.94l-.47-1.48h-1.88l-.47,1.48Zm2.3-4.41-.73,2.25h1.48l-.72-2.25Z"/><path class="cls-3" d="M173.94,156.89c0,1.07.46,1.67,1.28,1.67a1.08,1.08,0,0,0,1.17-1.06h.86v.06a1.85,1.85,0,0,1-2,1.76c-1.37,0-2.16-.91-2.16-2.43v-.65c0-1.53.79-2.46,2.16-2.46a1.88,1.88,0,0,1,2,1.84v.06h-.86a1.11,1.11,0,0,0-1.17-1.13c-.82,0-1.28.6-1.28,1.69Z"/><path class="cls-3" d="M179.28,159.28a1.23,1.23,0,0,1-1.35-1.25c0-.73.51-1.2,1.46-1.2h1v-.39a.68.68,0,0,0-.76-.74.7.7,0,0,0-.78.62h-.81c0-.71.51-1.29,1.61-1.29.92,0,1.6.45,1.6,1.38v2.81h-.83v-.51h0A1.22,1.22,0,0,1,179.28,159.28Zm1.15-1.42v-.46h-.9c-.5,0-.73.24-.73.58a.66.66,0,0,0,.74.64A.8.8,0,0,0,180.43,157.86Z"/><path class="cls-3" d="M182.38,153.61h.87v5.61h-.87Z"/><path class="cls-3" d="M184.21,157A1.74,1.74,0,0,1,186,155a1.51,1.51,0,0,1,1.65,1.37h-.82a.8.8,0,0,0-.78-.65c-.6,0-1,.47-1,1.23v.35c0,.77.37,1.25,1,1.25a.75.75,0,0,0,.8-.6h.82a1.5,1.5,0,0,1-1.67,1.32,1.76,1.76,0,0,1-1.78-2Z"/><rect class="cls-3" x="153.18" y="111.57" width="35.9" height="35.9" rx="9.58"/><circle class="cls-4" cx="171.23" cy="129.51" r="11.62"/><path class="cls-3" d="M173.13,128.45a1.47,1.47,0,0,1,0,2.09h0l-2.65,2.65h4.07a1.12,1.12,0,0,1,1.12,1.12,1.13,1.13,0,0,1-1.12,1.12H168a1.16,1.16,0,0,1-1.15-1.16.74.74,0,0,1,.23-.55l4.57-4.21L167,125.29a.75.75,0,0,1-.23-.55,1.15,1.15,0,0,1,1.15-1.15h6.6a1.1,1.1,0,1,1,0,2.2h-4.07Z"/><path class="cls-3" d="M41.09,157.74c0,.46.45.85,1.2.85s1.1-.32,1.1-.82-.27-.63-.84-.77l-.87-.22a1.46,1.46,0,0,1-1.31-1.43c0-1,.89-1.58,1.93-1.58a1.71,1.71,0,0,1,1.92,1.55h-.86c0-.45-.38-.82-1.07-.82s-1,.28-1,.78c0,.35.24.6.74.71l.87.22c.8.19,1.41.57,1.41,1.48s-.85,1.63-2.05,1.63c-1.49,0-2-.86-2-1.58Z"/><path class="cls-3" d="M46.29,159.28A1.23,1.23,0,0,1,44.94,158c0-.73.51-1.2,1.46-1.2h1.05v-.39a.69.69,0,0,0-.77-.74.68.68,0,0,0-.77.62h-.82c0-.71.51-1.29,1.61-1.29.92,0,1.6.45,1.6,1.38v2.81h-.82v-.51h0A1.24,1.24,0,0,1,46.29,159.28Zm1.16-1.42v-.46h-.9c-.51,0-.74.24-.74.58a.66.66,0,0,0,.74.64A.81.81,0,0,0,47.45,157.86Z"/><path class="cls-3" d="M49.66,155.78h-.58v-.69h.58v-.41c0-.81.41-1.16,1.32-1.16l.38,0v.65h-.23c-.41,0-.62.13-.62.57v.34h.8v.69h-.79v3.44h-.86Z"/><path class="cls-3" d="M53.27,159.28A1.23,1.23,0,0,1,51.91,158c0-.73.51-1.2,1.46-1.2h1.05v-.39a.78.78,0,0,0-1.54-.12h-.81c0-.71.5-1.29,1.6-1.29.92,0,1.6.45,1.6,1.38v2.81h-.82v-.51h0A1.22,1.22,0,0,1,53.27,159.28Zm1.15-1.42v-.46h-.9c-.5,0-.73.24-.73.58a.66.66,0,0,0,.74.64A.81.81,0,0,0,54.42,157.86Z"/><path class="cls-3" d="M56.34,155.09h.87v.54h0a1,1,0,0,1,1-.6l.29,0v.77a1.77,1.77,0,0,0-.37,0c-.7,0-.93.43-.93,1v2.45h-.88Z"/><path class="cls-3" d="M59.8,153.59a.5.5,0,0,1,.51.49.49.49,0,0,1-.51.49.5.5,0,0,1-.52-.49A.5.5,0,0,1,59.8,153.59Zm-.44,1.5h.87v4.13h-.87Z"/><rect class="cls-3" x="32.46" y="111.35" width="35.9" height="35.9" rx="9.58"/><circle class="cls-4" cx="50.41" cy="129.3" r="11.62"/><polygon class="cls-3" points="57.88 121.83 49.19 128.08 51.63 130.52 57.88 121.83"/><path class="cls-3" d="M49.26,128.94l1.5,1.51L45.4,134.3l3.86-5.36m-.07-.86-6.25,8.69,8.69-6.25-2.44-2.44Z"/></g></g></svg>