<?xml version="1.0" standalone="no"?>
<!DOCTYPE svg PUBLIC "-//W3C//DTD SVG 20010904//EN"
 "http://www.w3.org/TR/2001/REC-SVG-20010904/DTD/svg10.dtd">
<svg version="1.0" xmlns="http://www.w3.org/2000/svg"
 width="1968.000000pt" height="300.000000pt" viewBox="0 0 1968.000000 300.000000"
 preserveAspectRatio="xMidYMid meet">
<g transform="translate(0.000000,300.000000) scale(0.100000,-0.100000)"
fill="#000000" stroke="none">
<path d="M18898 2901 c-53 -34 -60 -45 -79 -118 -11 -46 -11 -60 4 -107 10
-31 34 -72 56 -97 37 -43 41 -44 95 -43 85 2 125 34 173 134 63 131 -2 250
-141 258 -54 3 -66 0 -108 -27z"/>
<path d="M8461 2514 c-166 -44 -333 -217 -410 -426 -58 -156 -56 -486 5 -644
9 -23 14 -52 12 -65 -3 -22 -10 -25 -68 -31 -80 -9 -219 -43 -282 -69 -26 -10
-91 -33 -145 -50 -119 -37 -228 -90 -302 -147 -31 -23 -119 -105 -196 -181
-179 -177 -266 -249 -369 -305 -93 -51 -142 -64 -271 -76 -71 -6 -105 -4 -162
10 -40 9 -79 23 -88 30 -21 17 -19 52 5 82 56 72 151 312 152 384 0 126 -84
245 -194 275 -53 14 -147 -2 -191 -33 -110 -77 -168 -168 -207 -326 -19 -79
-22 -109 -16 -190 4 -70 2 -104 -7 -122 -17 -34 -143 -122 -242 -170 -108 -52
-246 -88 -307 -80 -91 11 -141 75 -159 206 -24 178 -47 262 -88 331 -44 77
-75 108 -144 147 -45 26 -56 28 -135 24 -79 -3 -96 -8 -182 -49 -131 -63 -214
-130 -380 -304 -193 -204 -205 -215 -234 -215 -71 0 -103 86 -136 370 -16 132
-34 182 -79 223 -68 61 -94 70 -183 63 l-78 -6 -32 47 c-87 129 -244 252 -369
290 -142 42 -327 -2 -509 -123 -107 -72 -129 -89 -192 -161 -92 -104 -111
-136 -192 -325 -8 -21 -20 -68 -26 -105 -6 -36 -13 -70 -16 -75 -3 -4 -5 -44
-5 -87 0 -93 22 -188 58 -249 38 -64 120 -131 194 -159 115 -42 203 -41 396 3
151 35 434 200 609 356 76 68 90 73 107 46 8 -13 22 -54 31 -93 46 -189 180
-331 350 -370 56 -13 78 -14 124 -4 136 28 227 100 453 359 41 47 87 96 104
110 16 14 41 36 55 49 14 13 43 32 64 42 67 30 85 6 105 -141 35 -257 143
-423 323 -497 60 -24 70 -25 193 -20 135 6 242 27 325 66 25 11 52 21 60 21
18 0 216 118 271 162 47 36 70 35 126 -3 118 -81 377 -137 501 -108 231 54
364 130 582 337 37 34 74 62 83 62 9 0 24 -12 34 -28 67 -105 138 -153 291
-191 100 -26 207 -17 342 29 210 71 386 177 565 342 45 43 71 47 108 18 46
-37 139 -71 272 -102 71 -16 137 -34 147 -39 27 -15 109 -14 118 1 13 21 1 38
-54 75 -79 53 -126 101 -207 208 -108 144 -109 146 -98 175 5 14 22 44 37 66
66 99 154 318 203 508 29 111 24 346 -10 488 -27 111 -90 228 -153 285 -82 75
-191 104 -287 79z m123 -362 c9 -10 26 -56 37 -101 17 -69 20 -105 17 -210 -4
-114 -8 -137 -42 -236 -43 -125 -85 -214 -108 -229 -27 -16 -45 9 -78 109 -43
130 -52 302 -22 421 24 96 56 163 107 222 40 46 63 52 89 24z m-5628 -987 c71
-35 204 -174 204 -213 0 -27 -22 -57 -62 -87 -7 -6 -44 -35 -82 -65 -199 -157
-407 -260 -526 -260 -105 0 -144 58 -120 176 39 198 213 394 409 461 75 26
102 24 177 -12z m5253 -83 c18 -34 -1 -62 -83 -124 -154 -116 -485 -255 -555
-233 -72 23 49 125 299 251 25 12 80 31 123 42 43 11 99 34 125 51 54 35 77
39 91 13z"/>
<path d="M1553 2510 c-18 -4 -43 -15 -57 -23 -35 -24 -83 -113 -96 -182 -6
-33 -18 -98 -27 -145 -15 -73 -17 -162 -18 -610 -1 -552 -7 -667 -46 -820 -25
-99 -42 -135 -68 -150 -44 -23 -205 -5 -356 40 -38 12 -104 30 -144 41 -41 10
-154 47 -250 80 -97 34 -203 69 -236 79 -33 10 -73 25 -90 34 -40 21 -47 20
-76 -10 -21 -22 -24 -37 -27 -109 -4 -80 -3 -86 34 -155 44 -85 136 -173 234
-224 156 -82 439 -173 660 -213 105 -19 279 -20 351 -3 154 37 269 128 332
262 87 185 128 562 111 1033 -5 132 -9 393 -9 580 0 187 -4 351 -9 365 -14 42
-76 110 -113 125 -38 16 -51 17 -100 5z"/>
<path d="M10690 2384 c-160 -15 -358 -75 -474 -143 -110 -64 -260 -214 -294
-293 -18 -43 4 -95 56 -135 49 -37 67 -39 140 -18 35 11 72 33 114 71 89 78
138 109 230 144 83 31 239 60 328 60 59 0 61 -7 28 -78 -61 -129 14 -505 213
-1065 55 -153 73 -192 118 -255 57 -78 133 -102 204 -66 66 35 95 97 96 212 1
61 -5 89 -39 180 -71 186 -188 561 -214 682 -9 41 -19 109 -22 150 -3 43 -16
102 -30 139 -14 35 -23 70 -20 77 7 18 53 18 186 0 217 -30 436 -80 579 -132
93 -35 168 -74 300 -158 78 -49 175 -166 191 -229 6 -23 14 -50 16 -60 8 -28
-25 -145 -57 -201 -65 -117 -205 -264 -385 -407 -92 -72 -228 -169 -238 -169
-4 0 -36 -22 -72 -50 -36 -27 -75 -55 -87 -61 -12 -6 -38 -27 -58 -46 -20 -19
-58 -49 -85 -66 -27 -18 -50 -40 -52 -49 -4 -23 85 -92 153 -117 139 -52 282
-2 562 196 283 200 534 492 611 708 22 61 42 185 42 255 0 70 -48 210 -97 285
-58 88 -181 216 -251 261 -111 72 -200 123 -243 140 -24 10 -53 23 -64 30 -74
45 -489 153 -685 178 -231 30 -550 43 -700 30z"/>
<path d="M18045 2160 c-38 -5 -131 -22 -205 -40 -203 -48 -185 -47 -229 -7
-42 38 -85 52 -130 42 -31 -7 -92 -66 -128 -125 -31 -50 -60 -64 -276 -131
-251 -79 -342 -123 -429 -211 -87 -87 -106 -146 -72 -226 33 -80 110 -132 195
-132 50 0 54 2 111 60 66 66 165 119 237 128 l44 5 -5 -40 c-11 -83 -219 -380
-383 -549 -96 -98 -231 -184 -290 -184 -30 0 -71 49 -86 103 -8 27 -12 108
-10 229 3 214 -2 231 -83 306 -37 34 -53 42 -84 42 -110 0 -179 -47 -418 -287
-172 -173 -194 -180 -194 -63 0 82 -35 176 -87 231 -112 120 -255 127 -438 22
-129 -74 -195 -125 -331 -257 -88 -86 -136 -125 -152 -126 -19 0 -29 12 -54
67 -16 37 -34 92 -38 123 -31 209 -72 293 -169 343 -30 15 -69 27 -87 27 -42
0 -152 -50 -183 -84 -31 -33 -49 -33 -57 2 -32 145 -72 231 -143 305 -118 125
-283 162 -436 100 -235 -96 -513 -390 -596 -631 -47 -134 -59 -193 -59 -278 0
-238 110 -398 320 -465 285 -92 721 117 1037 496 35 42 44 48 59 39 10 -6 23
-31 30 -55 33 -130 160 -297 256 -339 45 -19 62 -21 126 -16 41 4 84 12 95 19
58 33 169 122 203 164 21 27 53 64 70 83 18 19 56 61 85 93 59 65 198 167 227
167 41 0 45 -20 37 -200 l-7 -171 27 -54 c19 -40 38 -62 68 -79 93 -55 174
-43 284 41 75 57 109 92 281 286 57 65 109 116 116 114 7 -2 13 -47 17 -118 6
-115 32 -223 67 -278 46 -74 96 -122 160 -153 59 -29 76 -33 152 -33 74 0 95
4 163 34 144 62 295 189 430 364 32 42 66 77 73 77 8 0 27 -24 44 -54 93 -164
264 -230 448 -170 120 39 276 144 385 260 66 71 89 70 98 -1 10 -78 67 -203
116 -256 87 -93 206 -115 323 -61 93 43 157 97 358 303 182 187 304 294 349
305 64 16 89 -93 59 -262 -29 -165 -70 -250 -144 -303 -38 -26 -185 -72 -255
-78 -69 -7 -76 -17 -52 -78 24 -64 90 -128 148 -145 76 -21 207 -8 265 26 161
95 212 159 271 342 38 118 42 141 48 270 7 165 -4 238 -50 331 -54 108 -145
171 -246 171 -49 0 -76 -7 -143 -38 -96 -45 -198 -132 -403 -343 -259 -267
-314 -297 -364 -196 -21 42 -25 69 -31 195 -6 120 -11 154 -28 187 -27 53 -57
84 -99 102 -74 30 -147 -9 -274 -149 -112 -125 -237 -234 -329 -289 -54 -32
-78 -40 -120 -41 -97 -2 -129 63 -130 263 0 64 7 98 46 215 25 76 53 151 62
166 17 29 71 56 162 82 328 91 577 180 740 264 111 57 119 75 52 109 -24 12
-48 26 -55 31 -7 6 -47 24 -90 41 -83 33 -128 36 -272 21z m-4409 -631 c19
-11 46 -42 61 -67 92 -163 121 -208 150 -231 50 -39 44 -61 -39 -143 -159
-156 -362 -275 -510 -298 -94 -15 -120 -9 -153 34 -115 151 63 514 335 680 83
51 108 55 156 25z"/>
</g>
</svg>
