<svg style="" width="75.312500" height="75.312500" version="1.1" xmlns="http://www.w3.org/2000/svg">
<path d="M37.656250 57.656250 C43.177111 57.656250 47.890605 55.703145 51.796875 51.796875 C55.703145 47.890605 57.656250 43.177111 57.656250 37.656250 C57.656250 32.135389 55.703145 27.421895 51.796875 23.515625 C47.890605 19.609355 43.177111 17.656250 37.656250 17.656250 C34.947903 17.656250 32.187514 18.281244 29.375000 19.531250 C32.812517 21.093758 35.598948 23.515609 37.734375 26.796875 C39.869802 30.078141 40.937500 33.697897 40.937500 37.656250 C40.937500 41.614603 39.869802 45.234359 37.734375 48.515625 C35.598948 51.796891 32.812517 54.218742 29.375000 55.781250 C32.187514 57.031256 34.947903 57.656250 37.656250 57.656250 Z M64.375000 26.562500 L75.312500 37.656250 L64.375000 48.750000 L64.375000 64.375000 L48.750000 64.375000 L37.656250 75.312500 L26.562500 64.375000 L10.937500 64.375000 L10.937500 48.750000 L0.000000 37.656250 L10.937500 26.562500 L10.937500 10.937500 L26.562500 10.937500 L37.656250 -0.000000 L48.750000 10.937500 L64.375000 10.937500 Z M77.656250 71.015625" style="fill:black"/>
</svg>