<?xml version="1.0" encoding="utf-8"?>
<!-- Generator: Adobe Illustrator 23.0.1, SVG Export Plug-In . SVG Version: 6.00 Build 0)  -->
<svg version="1.1" id="Layer_1" xmlns="http://www.w3.org/2000/svg" xmlns:xlink="http://www.w3.org/1999/xlink" x="0px" y="0px"
	 viewBox="0 0 288 288" style="enable-background:new 0 0 288 288;" xml:space="preserve">
<style type="text/css">
	.st0{fill:none;stroke:url(#SVGID_1_);stroke-miterlimit:10;}
	.st1{fill:url(#SVGID_2_);}
	.st2{fill:#2CA2DC;}
	.st3{fill:#B8DBEB;}
	.st4{fill:#FFFFFF;}
</style>
<g>
	<linearGradient id="SVGID_1_" gradientUnits="userSpaceOnUse" x1="144" y1="52.9348" x2="144" y2="267.732">
		<stop  offset="0" style="stop-color:#2CA2DC"/>
		<stop  offset="1" style="stop-color:#FFFFFF"/>
	</linearGradient>
	<path class="st0" d="M57.3,267.2V74.8c0-11.8,9.6-21.4,21.4-21.4h130.7c11.8,0,21.4,9.6,21.4,21.4v192.4H57.3z"/>
	<linearGradient id="SVGID_2_" gradientUnits="userSpaceOnUse" x1="144" y1="70.7444" x2="144" y2="267.232">
		<stop  offset="0" style="stop-color:#8ACDEB"/>
		<stop  offset="1" style="stop-color:#FFFFFF"/>
	</linearGradient>
	<path class="st1" d="M62.1,267.2V83.4c0-7,5.7-12.6,12.6-12.6h138.5c7,0,12.6,5.7,12.6,12.6v183.8H62.1z"/>
	<path class="st2" d="M165.1,133.9h-39.6c-3.8,0-6.9,3.1-6.9,6.9c0,1.2,0.5,2.4,1.4,3.3l27.4,25.3l-27.4,25.3
		c-0.9,0.8-1.4,2-1.4,3.3c0,3.8,3.1,6.9,6.9,6.9h39.6c3.7,0,6.7-3,6.7-6.7c0-3.7-3-6.7-6.7-6.7h-24.4l15.9-15.9
		c3.5-3.5,3.5-9.1,0-12.6l-15.9-15.9h24.4c3.7,0,6.7-3,6.7-6.7C171.7,136.9,168.8,133.9,165.1,133.9z"/>
</g>
<g>
	<path class="st3" d="M214,123c-4.1,0-7.5-3.3-7.5-7.5V77.8c0-1.6-1.3-3-3-3h-8.9c-3,0-5.6-1.7-6.8-4.4c-1.2-2.7-0.8-5.8,1.2-8
		l36.1-41.4c1.4-1.6,3.5-2.6,5.6-2.6s4.2,0.9,5.6,2.6l36.1,41.4c1.9,2.2,2.4,5.3,1.2,8c-1.2,2.7-3.8,4.4-6.8,4.4h-8.9
		c-1.6,0-3,1.3-3,3v37.7c0,4.1-3.3,7.5-7.5,7.5H214z"/>
	<path class="st4" d="M230.7,20.8c1.4,0,2.9,0.6,3.9,1.8L270.7,64c2.9,3.4,0.5,8.6-3.9,8.6h-8.9c-2.9,0-5.2,2.3-5.2,5.2v37.7
		c0,2.9-2.3,5.2-5.2,5.2H214c-2.9,0-5.2-2.3-5.2-5.2V77.8c0-2.9-2.3-5.2-5.2-5.2h-8.9c-4.5,0-6.9-5.3-3.9-8.6l36.1-41.4
		C227.9,21.4,229.3,20.8,230.7,20.8 M230.7,16.3c-2.8,0-5.5,1.2-7.3,3.3L187.4,61c-2.5,2.9-3.1,6.9-1.5,10.4c1.6,3.5,5,5.7,8.8,5.7
		h8.9c0.4,0,0.7,0.3,0.7,0.7v37.7c0,5.3,4.4,9.7,9.7,9.7h33.6c5.3,0,9.7-4.4,9.7-9.7V77.8c0-0.4,0.3-0.7,0.7-0.7h8.9
		c3.9,0,7.2-2.2,8.8-5.7c1.6-3.5,1-7.5-1.5-10.4l-36.1-41.4C236.2,17.5,233.6,16.3,230.7,16.3L230.7,16.3z"/>
</g>
</svg>
