<svg xmlns="http://www.w3.org/2000/svg" xmlns:xlink="http://www.w3.org/1999/xlink" viewBox="0 0 218.18 249.88"><defs><style>.cls-1{fill:none;stroke-linecap:round;stroke-miterlimit:10;stroke-width:2.25px;stroke:url(#linear-gradient);}.cls-2{fill:url(#linear-gradient-2);}.cls-3{fill:#fff;}.cls-4{fill:#31a2db;}</style><linearGradient id="linear-gradient" x1="87.88" y1="31.83" x2="87.88" y2="247.88" gradientTransform="translate(0 2)" gradientUnits="userSpaceOnUse"><stop offset="0" stop-color="#33a2db"/><stop offset="0.09" stop-color="#38a4dc" stop-opacity="0.97"/><stop offset="0.22" stop-color="#47abdd" stop-opacity="0.9"/><stop offset="0.36" stop-color="#61b8e3" stop-opacity="0.77"/><stop offset="0.51" stop-color="#84c7e8" stop-opacity="0.6"/><stop offset="0.67" stop-color="#b2dcf0" stop-opacity="0.38"/><stop offset="0.83" stop-color="#e8f5fd" stop-opacity="0.11"/><stop offset="0.9" stop-color="#fff" stop-opacity="0"/></linearGradient><linearGradient id="linear-gradient-2" x1="87.78" y1="52.36" x2="87.78" y2="248.76" gradientUnits="userSpaceOnUse"><stop offset="0" stop-color="#31a2db"/><stop offset="0.1" stop-color="#33a4dd" stop-opacity="0.97"/><stop offset="0.23" stop-color="#40abdf" stop-opacity="0.9"/><stop offset="0.38" stop-color="#5db8e4" stop-opacity="0.78"/><stop offset="0.53" stop-color="#81c7e9" stop-opacity="0.6"/><stop offset="0.7" stop-color="#b0dbf2" stop-opacity="0.38"/><stop offset="0.88" stop-color="#e7f6fc" stop-opacity="0.12"/><stop offset="0.95" stop-color="#fff" stop-opacity="0"/></linearGradient></defs><title>update-found</title><g id="Layer_2" data-name="Layer 2"><g id="update_found" data-name="update found"><path class="cls-1" d="M174.62,109V248.75H1.12V56.35A21.43,21.43,0,0,1,22.53,35H134.88"/><path class="cls-2" d="M157.88,109a12,12,0,0,1-11.95-12V60.9h-7.36a11.85,11.85,0,0,1-10.85-7,13.49,13.49,0,0,1-.57-1.54H18.53A12.6,12.6,0,0,0,5.93,65v183.8H169.62V109Z"/><path class="cls-3" d="M100.48,135.45a8.87,8.87,0,0,1,0,12.54l0,.06L84.58,164H109a6.7,6.7,0,0,1,0,13.4H69.38a6.91,6.91,0,0,1-6.9-6.9,4.35,4.35,0,0,1,1.4-3.3l27.4-25.3-27.4-25.33a4.72,4.72,0,0,1-1.41-3.3,6.92,6.92,0,0,1,6.91-6.9H109a6.6,6.6,0,0,1,0,13.2H84.58Z"/><path class="cls-4" d="M157.93,104.6a7.49,7.49,0,0,1-7.5-7.48V59.4a3,3,0,0,0-3-3h-8.89A7.48,7.48,0,0,1,132.93,44L169,2.6a7.59,7.59,0,0,1,5.6-2.6,7.25,7.25,0,0,1,5.6,2.6L216.34,44a7.57,7.57,0,0,1,1.2,8,7.35,7.35,0,0,1-6.8,4.4h-8.86a3,3,0,0,0-3,3V97.1a7.5,7.5,0,0,1-7.48,7.5H157.93Z"/></g></g></svg>