<svg style="" width="18.035156" height="23.994141" version="1.1" xmlns="http://www.w3.org/2000/svg">
<path d="M8.701172 20.619141 C10.212898 20.619141 11.487300 20.100591 12.524414 19.063477 C13.561529 18.026362 14.080078 16.751961 14.080078 15.240234 C14.080078 13.693352 13.869143 12.181648 13.447266 10.705078 C12.357416 12.146492 10.617199 13.113279 8.226562 13.605469 C6.117177 14.062502 5.062500 15.222647 5.062500 17.085938 C5.062500 18.070317 5.414059 18.905270 6.117188 19.590820 C6.820316 20.276371 7.681636 20.619141 8.701172 20.619141 Z M10.705078 -0.000000 C12.955089 1.828134 14.739251 4.051745 16.057617 6.670898 C17.375983 9.290052 18.035156 12.076157 18.035156 15.029297 C18.035156 17.490247 17.156259 19.599601 15.398438 21.357422 C13.640616 23.115243 11.513684 23.994141 9.017578 23.994141 C6.521472 23.994141 4.394540 23.115243 2.636719 21.357422 C0.878897 19.599601 0.000000 17.490247 0.000000 15.029297 C0.000000 11.232403 1.212878 7.892593 3.638672 5.009766 L3.638672 5.431641 C3.638672 6.591803 4.025387 7.576168 4.798828 8.384766 C5.572269 9.193363 6.539057 9.597656 7.699219 9.597656 C8.824224 9.597656 9.747067 9.202152 10.467773 8.411133 C11.188480 7.620113 11.548828 6.626959 11.548828 5.431641 C11.548828 4.728512 11.478516 3.919926 11.337891 3.005859 C11.197265 2.091792 11.056641 1.371096 10.916016 0.843750 Z M22.517578 26.261719" style="fill:black"/>
</svg>